<?xml version="1.0" standalone="no"?><!DOCTYPE svg PUBLIC "-//W3C//DTD SVG 1.1//EN" "http://www.w3.org/Graphics/SVG/1.1/DTD/svg11.dtd"><svg t="1623743069945" class="icon" viewBox="0 0 1024 1024" version="1.1" xmlns="http://www.w3.org/2000/svg" p-id="3220" xmlns:xlink="http://www.w3.org/1999/xlink" width="200" height="200"><defs><style type="text/css"></style></defs><path d="M1023.362397 988.831911c0 21.100853-14.069234 35.169088-35.170087 35.169088H214.467377c-21.097855 0-35.165091-14.068235-35.165091-35.169088V215.106978c0-21.097855 14.068235-35.165091 35.165091-35.16509h773.724933c21.100853 0 35.170087 14.068235 35.170087 35.16509v773.724933z" fill="#CAE6FF" p-id="3221"></path><path d="M879.231198 0.639601H105.505265C49.238322 0.639601 0 49.877924 0 106.145866v773.724933c0 56.266943 49.238322 105.504266 105.505265 105.504266h773.724933c56.266943 0 105.504266-49.238322 105.504266-105.504266V106.145866C984.735464 49.877924 935.498141 0.639601 879.231198 0.639601z m35.170087 879.231198c0 21.100853-14.069234 35.169088-35.170087 35.169088H105.505265c-21.097855 0-35.165091-14.068235-35.16509-35.169088V106.145866c0-21.097855 14.068235-35.165091 35.16509-35.16509h773.724933c21.100853 0 35.170087 14.068235 35.170088 35.16509v773.724933z" fill="#2B88FE" p-id="3222"></path><path d="M550.614941 281.995304h211.015528c21.101853 0 35.170087 14.068235 35.170087 35.164091 0 21.102852-14.068235 35.170087-35.170087 35.170087H550.614941c-21.096856 0-35.164091-14.068235-35.164091-35.170087 0-21.095856 14.067235-35.164091 35.164091-35.164091zM272.012523 774.360537c-56.266943 0-105.504266-49.238322-105.504265-105.504266 0-56.272939 49.238322-105.510262 105.504265-105.510262 56.272939 0 105.510262 49.238322 105.510263 105.510262 0.000999 56.265944-49.237323 105.504266-105.510263 105.504266z" fill="#2B88FE" p-id="3223"></path><path d="M271.020142 345.296864l-77.368796-77.369795c-14.068235-14.068235-35.170087-14.068235-49.238322 0-14.068235 14.069234-14.068235 35.170087 0 49.233325l98.475645 98.475645c7.033618 7.034617 21.100853 14.068235 28.130473 14.068235 7.033618 0 21.102852 0 28.135471-7.033618l147.713967-147.70897c14.068235-14.068235 14.068235-35.170087 0-49.238322-14.068235-14.068235-35.170087-14.068235-49.238322 0L271.020142 345.296864z" fill="#FF7900" p-id="3224"></path><path d="M550.614941 633.685184h211.015528c21.101853 0 35.170087 14.068235 35.170087 35.170088 0 21.100853-14.068235 35.170087-35.170087 35.170087H550.614941c-21.096856 0-35.164091-14.069234-35.164091-35.170087 0-21.101853 14.067235-35.170087 35.164091-35.170088z" fill="#2B88FE" p-id="3225"></path></svg>