<?xml version="1.0" standalone="no"?><!DOCTYPE svg PUBLIC "-//W3C//DTD SVG 1.1//EN" "http://www.w3.org/Graphics/SVG/1.1/DTD/svg11.dtd"><svg t="1623743239606" class="icon" viewBox="0 0 1024 1024" version="1.1" xmlns="http://www.w3.org/2000/svg" p-id="10423" xmlns:xlink="http://www.w3.org/1999/xlink" width="200" height="200"><defs><style type="text/css"></style></defs><path d="M269.5 960c-74.5 0-130.8-57.5-130.8-133.7V581.4c0-22.2 13.2-36.6 33.6-36.6s33.6 14.3 33.6 36.6v244.9c0 32.9 32.1 66.5 63.5 66.5h534.3c32.3 0 66.4-34.2 66.4-66.5V194.9c0-31.5-33.5-63.5-66.4-63.5H405.3c-22.2 0-36.4-13.2-36.4-33.6 0-20.5 14.3-33.8 36.4-33.8h398.6c76.2 0 133.6 56.3 133.6 130.9v631.4c0.8 72.9-57.8 132.9-130.7 133.7H269.5z" fill="#2680EB" p-id="10424"></path><path d="M602.4 599.6h104.2c20 0 31.9 11.4 31.9 30.5 0 19-11.9 30.4-31.9 30.4H602.4c-20 0-31.9-11.4-31.9-30.4 0-9.3 2.7-16.7 8.1-22.1 5.6-5.5 13.6-8.4 23.8-8.4zM602.4 232.9h104.2c20 0 31.9 11.4 31.9 30.5 0 19-11.9 30.4-31.9 30.4H602.4c-20 0-31.9-11.4-31.9-30.4 0-9.3 2.7-16.7 8.1-22.1 5.6-5.6 13.6-8.4 23.8-8.4zM366.7 730.3h340c20 0 31.9 11.4 31.9 30.4 0 19.1-11.9 30.5-31.9 30.5h-340c-20 0-31.9-11.4-31.9-30.5 0-9.3 2.7-16.6 8.1-22 5.5-5.6 13.6-8.4 23.8-8.4zM130.4 93.3c7.8 0 16.8 17.7 21.4 31.9 25.7 87.9 141.8 181 246.4 192.5v-1.1c0-29.3 10.5-50.3 31.4-63.8 11-6.8 22.5-10.5 34.5-10.5 13.6 0 27.2 4.8 38.8 13.6L660 380c17.7 13.1 28.3 34.5 28.3 57 0 22-10.5 43.4-27.8 56.5L503 618.1c-1.6 1.1-2.6 2.1-4.2 2.6-7.3 4.2-19.3 9.4-34 9.4-12 0-23.5-3.2-34-9.9-26.2-16.8-30.3-43.4-31.9-54.9l-0.5-2.1c-0.5-1.6-0.5-3.7-0.5-5.3v-5.3C236.7 526 86.5 361.8 86.5 203.7c0-29.3 4.2-59.1 12.6-87.3 4.2-13.7 18.3-26.3 31.3-23.1z m332.3 463c0.5 2.6 1.1 6.8 2.1 8.3l154.8-122.4c1.6-1.1 2.6-3.2 2.6-5.3 0-2.1-0.5-3.7-2.6-5.3L463.7 308.3c0 1.1-0.5 3.2-0.5 7.8v34.5c0 17.2-13.1 31.4-30.3 32.4C329.3 390.3 221 322.3 155 238.6c22 122 152.8 245.4 277.3 252.2 17.2 1.1 30.8 15.2 30.8 32.4v32.4l-0.4 0.7z" fill="#2680EB" p-id="10425"></path></svg>