<?xml version="1.0" standalone="no"?><!DOCTYPE svg PUBLIC "-//W3C//DTD SVG 1.1//EN" "http://www.w3.org/Graphics/SVG/1.1/DTD/svg11.dtd"><svg t="1623739978005" class="icon" viewBox="0 0 1024 1024" version="1.1" xmlns="http://www.w3.org/2000/svg" p-id="2388" xmlns:xlink="http://www.w3.org/1999/xlink" width="200" height="200"><defs><style type="text/css"></style></defs><path d="M947.2 72.704h-870.4c-21.504 0-39.936 7.168-55.296 25.6C7.168 113.664 0 135.168 0 160.768v698.368c0 51.2 32.768 91.136 76.8 91.136h870.4c21.504 0 39.936-7.168 55.296-25.6 14.336-18.432 21.504-39.936 21.504-62.464V160.768c0-47.104-36.864-88.064-76.8-88.064zM183.296 877.568h-58.368c-29.696 0-51.2-25.6-51.2-58.368V658.432h109.568v219.136z m0-292.864H72.704V439.296h109.568v145.408z m0-219.136H72.704V204.8c0-32.768 21.504-58.368 51.2-58.368h58.368v219.136zM768 402.432v475.136H256V146.432h512v256zM951.296 819.2c0 32.768-21.504 58.368-51.2 58.368h-58.368V658.432h109.568V819.2z m0-234.496H840.704V439.296h109.568v145.408z m0-219.136H840.704V146.432h62.464c25.6 0 47.104 25.6 47.104 58.368v160.768z m0 0" p-id="2389"></path><path d="M435.2 644.096l164.864-83.968 29.696-14.336c36.864-18.432 36.864-47.104 0-65.536l-193.536-98.304c-18.432-7.168-32.768 0-32.768 18.432v219.136c-1.024 24.576 13.312 31.744 31.744 24.576z m0 0" p-id="2390"></path></svg>