<?xml version="1.0" encoding="utf-8"?>
<!-- Generator: Adobe Illustrator 25.0.0, SVG Export Plug-In . SVG Version: 6.00 Build 0)  -->
<svg version="1.1" id="图层_1" xmlns="http://www.w3.org/2000/svg" xmlns:xlink="http://www.w3.org/1999/xlink" x="0px" y="0px"
	 viewBox="0 0 2040 440" style="enable-background:new 0 0 2040 440;" xml:space="preserve">
<style type="text/css">
	.st0{fill:#FFFFFF;}
	.st1{fill:#EA5514;}
</style>
<g>
	<path class="st0" d="M425.9,281h7v30h0.3c1.5-2.3,2.9-4.7,4.3-6.6l16.7-23.4h8.7l-19.7,26.5l21.2,35.8h-8.3l-17.9-30.6l-5.2,6.9
		v23.7h-7L425.9,281L425.9,281z"/>
	<path class="st0" d="M501.8,331.1c0,4.7,0.1,8.7,0.3,12.3h-6.3l-0.4-7.3h-0.1c-1.9,3.6-5.9,8.3-13,8.3c-6.2,0-13.5-3.9-13.5-19.6
		v-26.2h7.2v24.8c0,8.5,2.2,14.2,8.7,14.2c4.8,0,8.1-3.9,9.4-7.4c0.4-1.2,0.7-2.6,0.7-4.1v-27.4h7.2L501.8,331.1L501.8,331.1z"/>
	<path class="st0" d="M513.7,310.7c0-4.7-0.1-8.4-0.3-12.1h6.3l0.4,7.4h0.1c1.9-4.3,6.5-8.4,13-8.4c5.4,0,13.8,3.7,13.8,19v26.7
		h-7.2v-25.8c0-7.2-2.3-13.2-9.1-13.2c-4.7,0-8.4,3.7-9.5,8.3c-0.3,1-0.6,2.3-0.6,3.9v26.9h-7.2v-32.7L513.7,310.7L513.7,310.7z"/>
	<path class="st0" d="M557.6,298.6l8.5,26.5c0.8,2.9,1.9,6.5,2.5,9.1h0.1c0.7-2.6,1.5-6.1,2.5-9.4l7.7-26.2h7.6l-10.7,31.8
		c-5.1,15.3-8.5,23.2-13.5,28c-3.4,3.4-7,5-8.7,5.2l-1.8-6.9c1.8-0.7,4.1-1.9,6.2-4c1.9-1.8,4.4-5,5.9-9.1c0.3-0.8,0.6-1.5,0.6-1.9
		s-0.1-1.1-0.6-2.1l-14.5-41.2h8.1v0.2H557.6z"/>
	<path class="st0" d="M601.2,286c0.1,2.8-1.7,5-4.5,5c-2.5,0-4.3-2.2-4.3-5c0-2.9,1.9-5.1,4.4-5.1
		C599.4,280.9,601.2,283.1,601.2,286z M593.2,343.3v-44.8h7.2v44.8H593.2z"/>
	<path class="st0" d="M633.3,322.4c0.1,11,6.3,15.6,13.5,15.6c5.1,0,8.1-1,10.9-2.3l1.2,5.8c-2.5,1.2-6.8,2.8-13.1,2.8
		c-12.1,0-19.3-9.1-19.3-22.6s7-24.1,18.3-24.1c12.8,0,16.1,12.8,16.1,21.1c0,1.7-0.1,2.9-0.3,3.7H633.3L633.3,322.4L633.3,322.4z
		 M654.1,316.6c0.1-5.2-1.9-13.2-9.9-13.2c-7.2,0-10.3,7.6-10.9,13.2H654.1z"/>
	<path class="st0" d="M669.8,277.7h7.2v65.6h-7.2V277.7z"/>
	<path class="st0" d="M693,322.4c0.1,11,6.3,15.6,13.5,15.6c5.1,0,8.1-1,10.9-2.3l1.2,5.8c-2.5,1.2-6.8,2.8-13.1,2.8
		c-12.1,0-19.3-9.1-19.3-22.6s7-24.1,18.3-24.1c12.8,0,16.1,12.8,16.1,21.1c0,1.7-0.1,2.9-0.3,3.7H693L693,322.4z M713.8,316.6
		c0.1-5.2-1.9-13.2-9.9-13.2c-7.2,0-10.3,7.6-10.9,13.2H713.8z"/>
	<path class="st0" d="M757.5,341.7c-1.9,1.1-5.9,2.6-11.3,2.6c-11.9,0-19.6-9.1-19.6-22.9s8.3-23.7,21.1-23.7c4.3,0,8,1.2,9.9,2.3
		l-1.7,6.3c-1.7-1.1-4.4-2.1-8.3-2.1c-9,0-13.8,7.6-13.8,17c0,10.3,5.8,16.7,13.6,16.7c4,0,6.8-1.2,8.7-2.2L757.5,341.7z"/>
	<path class="st0" d="M775.4,285.7v12.8h10.2v6.2h-10.2v24.1c0,5.5,1.4,8.7,5.4,8.7c1.9,0,3.3-0.3,4.1-0.6l0.3,6.1
		c-1.4,0.7-3.6,1.1-6.3,1.1c-3.3,0-5.9-1.2-7.7-3.4c-2.1-2.3-2.8-6.3-2.8-11.7v-24.4h-6.1v-6.2h6.1v-10.7L775.4,285.7z"/>
	<path class="st0" d="M793.6,312.6c0-5.2-0.1-9.8-0.3-13.9h6.2l0.3,8.8h0.3c1.8-6.1,6.1-9.8,10.9-9.8c0.8,0,1.4,0.1,2.1,0.3v7.7
		c-0.7-0.1-1.5-0.3-2.5-0.3c-5,0-8.5,4.4-9.5,10.5c-0.1,1.1-0.3,2.3-0.3,3.7v23.8h-7v-30.9L793.6,312.6L793.6,312.6z"/>
	<path class="st0" d="M854.8,320.6c0,16.5-10.1,23.7-19.6,23.7c-10.6,0-18.7-8.8-18.7-23c0-15,8.5-23.7,19.4-23.7
		C847.2,297.6,854.8,307,854.8,320.6z M823.6,321c0,9.8,5,17.2,11.9,17.2c6.8,0,11.9-7.3,11.9-17.4c0-7.6-3.3-17.2-11.7-17.2
		C827.3,303.7,823.6,312.6,823.6,321z"/>
	<path class="st0" d="M863.7,310.7c0-4.7-0.1-8.4-0.3-12.1h6.3l0.4,7.4h0.1c1.9-4.3,6.5-8.4,13-8.4c5.4,0,13.8,3.7,13.8,19v26.7
		h-7.2v-25.8c0-7.2-2.3-13.2-9.1-13.2c-4.7,0-8.3,3.7-9.5,8.3c-0.3,1-0.6,2.3-0.6,3.9v26.9h-7.2v-32.7L863.7,310.7L863.7,310.7z"/>
	<path class="st0" d="M916.7,286c0.1,2.8-1.7,5-4.5,5c-2.5,0-4.3-2.2-4.3-5c0-2.9,1.9-5.1,4.4-5.1
		C914.9,280.9,916.7,283.1,916.7,286z M908.7,343.3v-44.8h7.2v44.8H908.7z"/>
	<path class="st0" d="M955.5,341.7c-1.9,1.1-5.9,2.6-11.3,2.6c-11.9,0-19.6-9.1-19.6-22.9s8.3-23.7,21.1-23.7c4.3,0,8,1.2,9.9,2.3
		l-1.7,6.3c-1.7-1.1-4.4-2.1-8.3-2.1c-9,0-13.8,7.6-13.8,17c0,10.3,5.8,16.7,13.6,16.7c4,0,6.8-1.2,8.7-2.2L955.5,341.7z"/>
	<path class="st0" d="M963,334.9c2.1,1.5,5.8,3.3,9.4,3.3c5.2,0,7.6-2.9,7.6-6.6c0-3.9-2.1-6.1-7.3-8.3c-7-2.9-10.3-7.3-10.3-12.7
		c0-7.2,5.1-13.1,13.5-13.1c4,0,7.4,1.2,9.6,2.8l-1.8,5.9c-1.5-1.1-4.4-2.6-8-2.6c-4.3,0-6.6,2.8-6.6,6.1c0,3.7,2.3,5.4,7.4,7.6
		c6.8,2.9,10.3,6.9,10.3,13.5c0,7.9-5.4,13.4-14.6,13.4c-4.3,0-8.3-1.2-11-3L963,334.9z"/>
	<path class="st0" d="M1021.7,285.7v12.8h10.2v6.2h-10.2v24.1c0,5.5,1.4,8.7,5.4,8.7c1.9,0,3.3-0.3,4.1-0.6l0.3,6.1
		c-1.4,0.7-3.6,1.1-6.3,1.1c-3.3,0-5.9-1.2-7.7-3.4c-2.1-2.3-2.8-6.3-2.8-11.7v-24.4h-6.1v-6.2h6.1v-10.7L1021.7,285.7z"/>
	<path class="st0" d="M1043.3,322.4c0.1,11,6.3,15.6,13.5,15.6c5.1,0,8.1-1,10.9-2.3l1.2,5.8c-2.5,1.2-6.8,2.8-13.1,2.8
		c-12.1,0-19.3-9.1-19.3-22.6s7-24.1,18.3-24.1c12.8,0,16.1,12.8,16.1,21.1c0,1.7-0.1,2.9-0.3,3.7h-27.4l0,0H1043.3z M1064.3,316.6
		c0.1-5.2-1.9-13.2-9.9-13.2c-7.2,0-10.3,7.6-10.9,13.2H1064.3z"/>
	<path class="st0" d="M1107.9,341.7c-1.9,1.1-5.9,2.6-11.3,2.6c-11.9,0-19.6-9.1-19.6-22.9s8.3-23.7,21.1-23.7c4.3,0,8,1.2,9.9,2.3
		l-1.7,6.3c-1.7-1.1-4.4-2.1-8.3-2.1c-9,0-13.8,7.6-13.8,17c0,10.3,5.8,16.7,13.6,16.7c4,0,6.8-1.2,8.7-2.2L1107.9,341.7z"/>
	<path class="st0" d="M1116.2,277.7h7.2v28h0.1c1.1-2.3,2.9-4.4,5.1-5.8c2.1-1.4,4.7-2.3,7.3-2.3c5.2,0,13.6,3.7,13.6,19.2v26.6
		h-7.2v-25.8c0-7.2-2.3-13.4-9.1-13.4c-4.5,0-8.3,3.7-9.5,8.1c-0.4,1.1-0.6,2.3-0.6,3.9v27h-7.2v-65.5L1116.2,277.7L1116.2,277.7z"
		/>
	<path class="st0" d="M1161.1,310.7c0-4.7-0.1-8.4-0.3-12.1h6.3l0.4,7.4h0.1c1.9-4.3,6.5-8.4,13-8.4c5.4,0,13.8,3.7,13.8,19v26.7
		h-7.2v-25.8c0-7.2-2.3-13.2-9.1-13.2c-4.7,0-8.4,3.7-9.5,8.3c-0.3,1-0.6,2.3-0.6,3.9v26.9h-7.2v-32.7L1161.1,310.7L1161.1,310.7z"
		/>
	<path class="st0" d="M1241.5,320.6c0,16.5-10.1,23.7-19.6,23.7c-10.6,0-18.7-8.8-18.7-23c0-15,8.5-23.7,19.4-23.7
		C1233.9,297.6,1241.5,307,1241.5,320.6z M1210.5,321c0,9.8,5,17.2,11.9,17.2c6.8,0,11.9-7.3,11.9-17.4c0-7.6-3.3-17.2-11.7-17.2
		C1214.1,303.7,1210.5,312.6,1210.5,321z"/>
	<path class="st0" d="M1250.6,277.7h7.2v65.6h-7.2V277.7z"/>
	<path class="st0" d="M1305.2,320.6c0,16.5-10.1,23.7-19.6,23.7c-10.6,0-18.7-8.8-18.7-23c0-15,8.5-23.7,19.4-23.7
		C1297.4,297.6,1305.2,307,1305.2,320.6z M1274,321c0,9.8,5,17.2,11.9,17.2c6.8,0,11.9-7.3,11.9-17.4c0-7.6-3.3-17.2-11.7-17.2
		C1277.6,303.7,1274,312.6,1274,321z"/>
	<path class="st0" d="M1347.9,298.6c-0.1,3.2-0.3,6.9-0.3,12.3v25.9c0,10.2-1.8,16.5-5.7,20.4c-3.9,4.1-9.4,5.4-14.2,5.4
		c-4.7,0-9.9-1.2-13.1-3.7l1.8-6.2c2.6,1.8,6.6,3.4,11.4,3.4c7.3,0,12.7-4.4,12.7-15.6v-5h-0.1c-2.2,4.1-6.3,7.4-12.5,7.4
		c-9.6,0-16.7-9.4-16.7-21.8c0-15.2,8.7-23.7,17.6-23.7c6.8,0,10.5,4,12.3,7.7h0.1l0.3-6.8h6.3L1347.9,298.6L1347.9,298.6z
		 M1340.4,316.2c0-1.4-0.1-2.6-0.4-3.7c-1.2-4.7-4.8-8.5-9.9-8.5c-6.8,0-11.7,6.6-11.7,17c0,8.8,3.9,16.1,11.6,16.1
		c4.4,0,8.3-3.2,9.9-8.3c0.4-1.4,0.6-2.9,0.6-4.4L1340.4,316.2L1340.4,316.2z"/>
	<path class="st0" d="M1361.9,298.6l8.5,26.5c0.8,2.9,1.8,6.5,2.5,9.1h0.1c0.7-2.6,1.5-6.1,2.5-9.4l7.7-26.2h7.6l-10.7,31.8
		c-5.1,15.3-8.5,23.2-13.5,28c-3.4,3.4-7,5-8.7,5.2l-1.8-6.9c1.8-0.7,4.1-1.9,6.2-4c1.9-1.8,4.4-5,5.9-9.1c0.3-0.8,0.6-1.5,0.6-1.9
		s-0.1-1.1-0.6-2.1l-14.5-41.2h8.1v0.2H1361.9z"/>
	<path class="st0" d="M1430,279.1c-5.9,9.1-10.2,21.1-10.2,37.8c0,16.4,4.4,28.3,10.2,37.5h-5.7c-5.1-7.7-10.6-19.6-10.6-37.5
		c0.1-18.2,5.5-30,10.6-37.8H1430z"/>
	<path class="st0" d="M1436.9,333.6c3.2,2.2,7.7,4.1,12.7,4.1c7.2,0,11.4-4.4,11.4-10.6c0-5.8-2.9-9.1-10.3-12.4
		c-9-3.6-14.5-8.8-14.5-17.6c0-9.6,7-17,17.6-17c5.7,0,9.6,1.5,12.1,3l-1.9,6.6c-1.8-1.1-5.4-2.9-10.3-2.9c-7.4,0-10.3,5.1-10.3,9.4
		c0,5.8,3.3,8.7,10.9,12c9.2,4.1,13.9,9.1,13.9,18.3c0,9.6-6.2,17.9-19.2,17.9c-5.2,0-11-1.8-13.9-4L1436.9,333.6z"/>
	<path class="st0" d="M1477.6,277.7h7.2v28h0.1c1.1-2.3,2.9-4.4,5.1-5.8c2.1-1.4,4.7-2.3,7.3-2.3c5.2,0,13.6,3.7,13.6,19.2v26.6
		h-7.2v-25.8c0-7.2-2.3-13.4-9.1-13.4c-4.5,0-8.3,3.7-9.5,8.1c-0.4,1.1-0.6,2.3-0.6,3.9v27h-7.2v-65.5L1477.6,277.7L1477.6,277.7z"
		/>
	<path class="st0" d="M1544.1,343.3l-0.6-5.7h-0.3c-2.2,3.4-6.3,6.6-12,6.6c-8,0-12-6.3-12-12.8c0-10.7,8.4-16.7,23.6-16.7v-1
		c0-3.7-0.8-10.3-9-10.3c-3.6,0-7.4,1.2-10.2,3.3l-1.7-5.4c3.3-2.3,8-4,12.8-4c12,0,14.9,9.4,14.9,18.3v16.7c0,3.9,0.1,7.7,0.7,10.7
		h-6.3L1544.1,343.3L1544.1,343.3z M1543.2,320.5c-7.7-0.1-16.7,1.4-16.7,10.1c0,5.2,3,7.7,6.8,7.7c5.1,0,8.3-3.7,9.5-7.4
		c0.3-0.8,0.4-1.8,0.4-2.6L1543.2,320.5L1543.2,320.5z"/>
	<path class="st0" d="M1561.5,310.7c0-4.7-0.1-8.4-0.3-12.1h6.3l0.4,7.4h0.1c1.9-4.3,6.5-8.4,13-8.4c5.4,0,13.8,3.7,13.8,19v26.7
		h-7.2v-25.8c0-7.2-2.3-13.2-9.1-13.2c-4.7,0-8.4,3.7-9.5,8.3c-0.3,1-0.6,2.3-0.6,3.9v26.9h-7.2v-32.7L1561.5,310.7L1561.5,310.7z"
		/>
	<path class="st0" d="M1640.2,298.6c-0.1,3.2-0.3,6.9-0.3,12.3v25.9c0,10.2-1.8,16.5-5.7,20.4c-3.9,4.1-9.4,5.4-14.2,5.4
		c-4.7,0-9.9-1.2-13.1-3.7l1.8-6.2c2.6,1.8,6.6,3.4,11.4,3.4c7.3,0,12.7-4.4,12.7-15.6v-5h-0.1c-2.2,4.1-6.3,7.4-12.5,7.4
		c-9.6,0-16.7-9.4-16.7-21.8c0-15.2,8.7-23.7,17.6-23.7c6.8,0,10.5,4,12.3,7.7h0.1l0.3-6.8h6.3L1640.2,298.6L1640.2,298.6z
		 M1632.8,316.2c0-1.4-0.1-2.6-0.4-3.7c-1.2-4.7-4.8-8.5-9.9-8.5c-6.8,0-11.7,6.6-11.7,17c0,8.8,3.9,16.1,11.6,16.1
		c4.4,0,8.3-3.2,9.9-8.3c0.4-1.4,0.6-2.9,0.6-4.4L1632.8,316.2L1632.8,316.2z"/>
	<path class="st0" d="M1651.6,277.7h7.2v28h0.1c1.1-2.3,2.9-4.4,5.1-5.8c2.1-1.4,4.5-2.3,7.3-2.3c5.2,0,13.6,3.7,13.6,19.2v26.6
		h-7.2v-25.8c0-7.2-2.3-13.4-9.1-13.4c-4.7,0-8.3,3.7-9.5,8.1c-0.4,1.1-0.6,2.3-0.6,3.9v27h-7.2v-65.5L1651.6,277.7L1651.6,277.7z"
		/>
	<path class="st0" d="M1718.3,343.3l-0.6-5.7h-0.3c-2.2,3.4-6.3,6.6-12,6.6c-8,0-12-6.3-12-12.8c0-10.7,8.4-16.7,23.6-16.7v-1
		c0-3.7-0.8-10.3-9-10.3c-3.6,0-7.4,1.2-10.2,3.3l-1.7-5.4c3.3-2.3,8-4,12.8-4c12,0,14.9,9.4,14.9,18.3v16.7c0,3.9,0.1,7.7,0.7,10.7
		h-6.3L1718.3,343.3L1718.3,343.3z M1717.2,320.5c-7.7-0.1-16.7,1.4-16.7,10.1c0,5.2,3,7.7,6.8,7.7c5.1,0,8.3-3.7,9.5-7.4
		c0.3-0.8,0.4-1.8,0.4-2.6L1717.2,320.5L1717.2,320.5z"/>
	<path class="st0" d="M1743.6,286c0.1,2.8-1.7,5-4.5,5c-2.5,0-4.3-2.2-4.3-5c0-2.9,1.9-5.1,4.4-5.1
		C1741.9,280.9,1743.6,283.1,1743.6,286z M1735.6,343.3v-44.8h7.2v44.8H1735.6z"/>
	<path class="st0" d="M1750.3,354.5c5.8-9.1,10.2-21.2,10.2-37.8s-4.4-28.4-10.2-37.5h5.5c5.2,7.6,10.6,19.4,10.6,37.6
		c0,18.1-5.4,29.9-10.6,37.8h-5.5V354.5z"/>
	<path class="st0" d="M1822.7,341.7c-1.9,1.1-5.9,2.6-11.3,2.6c-11.9,0-19.6-9.1-19.6-22.9s8.3-23.7,21.1-23.7c4.1,0,8,1.2,9.9,2.3
		l-1.7,6.3c-1.7-1.1-4.4-2.1-8.3-2.1c-9,0-13.8,7.6-13.8,17c0,10.3,5.8,16.7,13.6,16.7c4,0,6.8-1.2,8.7-2.2L1822.7,341.7z"/>
	<path class="st0" d="M1865.9,320.6c0,16.5-10.1,23.7-19.6,23.7c-10.6,0-18.7-8.8-18.7-23c0-15,8.5-23.7,19.4-23.7
		C1858.4,297.6,1865.9,307,1865.9,320.6z M1834.8,321c0,9.8,5,17.2,11.9,17.2c6.8,0,11.9-7.3,11.9-17.4c0-7.6-3.3-17.2-11.7-17.2
		C1838.5,303.7,1834.8,312.6,1834.8,321z"/>
	<path class="st0" d="M1871.3,338.5c0-3.4,2.1-5.8,4.8-5.8c2.9,0,4.8,2.3,4.8,5.8c0,3.3-1.9,5.8-4.8,5.8
		C1873.2,344.3,1871.3,341.8,1871.3,338.5z"/>
	<path class="st0" d="M1885.1,354.6c1.8-5.5,4-15.3,4.8-22.1l8-1c-1.9,7.9-5.4,18.1-7.7,22.5L1885.1,354.6z"/>
	<path class="st0" d="M1924,281h7v55.5h23.3v6.8H1924V281z"/>
	<path class="st0" d="M1965.3,287.8h-16.5v-6.9h40.4v6.9h-16.7v55.4h-7.2L1965.3,287.8L1965.3,287.8z"/>
	<path class="st0" d="M1995.2,281.9c4.3-0.7,9.4-1.2,15-1.2c10.1,0,17.4,2.6,22.1,7.7c4.8,5.1,7.7,12.3,7.7,22.3
		c0,10.2-2.8,18.5-7.9,24.3s-13.5,9-24.1,9c-5.1,0-9.2-0.3-12.8-0.7L1995.2,281.9L1995.2,281.9z M2002.2,337
		c1.8,0.4,4.4,0.4,7.2,0.4c15,0,23.3-9.6,23.3-26.5c0.1-14.7-7.2-24-22.1-24c-3.6,0-6.3,0.4-8.3,0.8L2002.2,337L2002.2,337z"/>
	<g>
		<path class="st0" d="M473.6,189c0.1,3.9,1,9.4,1.7,12.4c-36.2,5.2-41.9,6.5-45.8,8.3c-0.7-3.4-3.2-9.6-5.2-12.7c3-1.1,7-3.3,7-8.3
			v-36H447V163h26.2v12.7H447v16.7L473.6,189z M520,149.3h-90.1v-46.2H520V149.3z M504.2,114.3H445v6.8h59.1v-6.8H504.2z
			 M504.2,131.4H445v6.8h59.1v-6.8H504.2z M514.2,195.2c4.5,0,5.4-2.1,6.1-13.6c3.2,2.2,9.4,4.4,13.5,5.4
			c-1.8,16.7-5.9,21.4-18.2,21.4h-18.1c-15.2,0-19-4.3-19-18.1v-37.9h15.2V168c9.4-3.6,18.6-7.9,24.7-12l12,10.3
			c-10.6,5.8-24.3,10.5-36.7,13.9v9.8c0,4.4,0.8,5,5.9,5h14.6L514.2,195.2L514.2,195.2z"/>
		<path class="st0" d="M652.5,159.9c0,0-0.3,3.9-0.6,5.7c-2.6,25.8-5.5,36.7-9.6,40.7c-3,3.2-6.3,4.1-10.2,4.5
			c-3.4,0.4-9.4,0.4-15.7,0.3c-0.1-3.6-1.7-8.7-3.9-12.1c5.2,0.4,10.2,0.4,12.4,0.4s3.4-0.1,4.7-1.4c2.3-2.2,5-9.5,6.6-25.6h-10.7
			c-6.5,16-17.2,30.2-28.8,39.3c-2.5-2.3-8.4-6.8-11.9-8.7c10.6-7.2,19.4-18.1,25.1-30.6h-10.7c-9.2,14.9-23.3,27.6-37.3,35.8
			c-2.3-2.9-7.9-7.9-11-10.2c12.3-5.9,23.7-15,31.7-25.6h-10.9c-6.2,5.7-13,10.6-19.4,14.5c-2.5-2.6-8.1-7.9-11.3-10.1
			c11.4-5.8,22.5-14.3,30.2-24.1h-11v-48.4h82.6v48.4h-54.2c-1.7,2.5-3.4,5-5.2,7.3L652.5,159.9L652.5,159.9z M574.6,123.1h52.6
			v-7.4h-52.8v7.4H574.6z M574.6,141.3h52.6v-7.6h-52.8v7.6H574.6z"/>
		<path class="st0" d="M772.9,179.2c3.7,1.9,8.5,3.9,12.1,4.5c-2.1,18.7-6.6,25.6-21.9,25.6h-23.8c-17.2,0-22.1-5-22.1-23v-6.6
			h-24.4v7h-15.4v-70.6h39.8V99.5h16.1v16.7H773L772.9,179.2L772.9,179.2z M692.8,130.3v11.6h24.4v-11.6H692.8z M717.1,166v-11.2
			h-24.4V166H717.1z M733.2,130.3v11.6h24.4v-11.6H733.2z M733.2,154.9v11.2h24.4v-11.2H733.2z M761.6,195.2c5.9,0,7.4-3.2,8.5-15.3
			h-36.9v6.8c0,7.4,0.8,8.5,7.7,8.5H761.6L761.6,195.2z"/>
		<path class="st0" d="M908.5,165h-48.6v28.8c0,8-1.9,12-7.7,14.2c-6.2,2.2-14.7,2.6-26.2,2.5c-0.8-4.1-3.9-10.6-6.3-14.7
			c8.8,0.4,18.6,0.4,21.2,0.4c2.8-0.1,3.6-0.7,3.6-2.8V165h-49.8v-14.2h49.8v-16.7c7.9-3.6,17-9,24.3-14.1h-61.5v-14h78.1l3.6-0.7
			l11.3,8.3c-10.6,10.1-25.8,20.8-40.1,28.3v9.1h48.6v14H908.5z"/>
		<path class="st0" d="M959.7,175.5c-1.5-3.3-4.5-8.4-7.6-13.1v48.4h-14.5v-43c-4.1,9.2-8.8,17.6-13.6,23.7c-1.4-4-4.7-9.9-6.9-13.5
			c7-7.7,14.1-20.4,18.6-32h-17v-13.2h19v-13.5c-5,0.7-9.5,1.4-14.2,1.9c-0.6-3.2-2.3-7.9-4-11c14.3-2.1,30-5.8,40.4-9.8l8.4,11.6
			c-5,1.8-10.5,3.2-16.3,4.4v16.4h16.5V146H952v1c3.6,3.3,13.9,14.6,16.3,17.4L959.7,175.5z M1021.5,180.6v30.2h-14.7v-27.6
			l-37.9,6.2l-2.3-13.5l40.2-6.6V99.1h14.7v67.7l12.4-2.1l2.3,13.2L1021.5,180.6z M990,163.9c-3.9-5.2-12.7-13-20-18.3l9.5-8.1
			c7.2,4.8,16.4,12.1,20.5,17.4L990,163.9z M993.3,132.5c-3.4-5.1-11.7-12.8-18.7-17.9l9.8-8.1c6.8,5,15.6,12,19.3,17.2L993.3,132.5
			z"/>
		<path class="st0" d="M1087.7,163.1c-4.4,1.2-9,2.3-13.4,3.4V195c0,6.9-1.4,10.3-5.7,12.5c-4.1,2.2-10.2,2.5-19,2.5
			c-0.7-3.6-2.5-9.2-4.3-13c5,0.1,10.1,0.1,11.7,0.1c1.9,0,2.3-0.6,2.3-2.3v-24.7l-12.1,2.9l-3.9-13.5c4.7-0.8,10.1-2.1,16.1-3.4
			V135h-14.5v-13.1h14.5V99.1h14.7v22.7h12.3V135h-12.3v17.6l11.6-2.8L1087.7,163.1z M1157.1,146.8c-4.8,16.7-12.8,29.6-23.3,39.7
			c8.1,5.5,17.8,9.5,28.9,12.1c-3.2,2.9-7.4,8.5-9.5,12.3c-12.1-3.4-22.6-8.4-31.3-15c-9.8,6.5-20.8,11.3-33.1,14.7
			c-1.7-3.9-5.2-9.8-8-13c11-2.5,21.2-6.3,30-11.7c-7.4-8-13.4-17.5-17.8-28.4l3.7-1.1h-6.5v-12.8h24.7v-14.3h-27v-13.1h27V99.1
			h14.7v17.1h28.1v13.1h-28.1v14.3h15l2.6-0.6L1157.1,146.8z M1107.8,156.5c3.6,7.9,8.5,15,14.7,21.2c6.5-5.9,12-13.1,15.7-21.2
			H1107.8z"/>
		<path class="st0" d="M1191.2,154.9c0-25.6,11.2-44.7,24.7-57.3l12,5c-12.5,13-22.5,29.4-22.5,52.4s9.9,39.4,22.5,52.4l-12,5
			C1202.3,199.7,1191.2,180.6,1191.2,154.9z"/>
		<path class="st0" d="M1347.3,190.6V205h-113.4v-14.3h44.8v-90h16.1V135h44.4v14.3h-44.4v41.3H1347.3z"/>
		<path class="st0" d="M1378.6,157.7c-4.3-4.1-13.4-9.5-20.4-13.1l8-9.6c7,3,16.3,8.3,20.8,12.1L1378.6,157.7z M1361.5,201.1
			c5.1-9.2,12-24.4,17.5-38.3l11.4,7.9c-4.7,12.7-10.3,26.6-15.8,38.3L1361.5,201.1z M1386.9,124.2c-4.5-4.1-14.3-9.8-21.6-13.5
			l8.3-9.5c7.3,3.2,17.2,8.5,22.2,12.3L1386.9,124.2z M1465.6,168.2c-0.4,4.8-0.7,9-1.1,12.7h7.7V193h-9.2c-1,5.8-2.2,9.1-3.7,11.2
			c-2.9,3.7-6.1,4.8-10.2,5.4c-3.7,0.6-9.8,0.6-15.7,0.3c-0.3-3.3-1.8-8.4-3.9-11.6c5.5,0.4,10.5,0.4,13,0.4c2.1,0,3.3-0.4,4.7-1.9
			c0.6-0.7,1.1-1.8,1.7-3.7h-51.8c1.4-6.8,2.9-15.6,4.3-24.8h-11.2v-13h13c0.8-6.5,1.7-13,2.2-19c-1.5,2.2-3.2,4.1-4.7,6.1
			c-2.9-2.2-9.2-5.9-12.8-7.7c8.4-8.5,15.8-22.2,20.1-35.4l14.5,3.4c-1,2.8-2.1,5.8-3.4,8.5h53.3v12.7h-59.5
			c-1.5,2.8-2.9,5.4-4.5,7.9h59.4c0,0,0,4.1-0.1,5.9c-0.3,6.3-0.7,12.1-0.8,17.5h9v13h-9.9v0H1465.6z M1414.7,168.2
			c-0.7,4.4-1.2,8.5-1.9,12.7h19c-3-3.2-7.3-6.9-10.9-9.8l4.8-2.9H1414.7L1414.7,168.2z M1418,143.9c-0.6,3.9-1,7.6-1.5,11.3h17
			c-2.5-2.9-6.1-6.1-9.1-8.7l4.3-2.6H1418z M1450.7,180.9c0.6-3.6,0.8-7.7,1.2-12.7h-20.3c4.1,3.2,8.7,7,11.2,10.1l-4,2.6
			L1450.7,180.9L1450.7,180.9z M1434.6,143.9c3.6,3,7.4,6.5,9.5,9.1l-3.6,2.2h12c0.1-3.6,0.4-7.3,0.6-11.3H1434.6L1434.6,143.9z"/>
		<path class="st0" d="M1515.7,154.9c0,25.6-11.2,44.7-24.7,57.3l-12-5c12.5-13,22.5-29.4,22.5-52.4s-9.9-39.4-22.5-52.4l12-5
			C1504.6,110.3,1515.7,129.5,1515.7,154.9z"/>
		<path class="st0" d="M1593.2,127c-1.5,3.2-3.2,6.3-5,9.5h58.2v59c0,7-1.4,10.9-6.5,13.1c-5,2.2-12,2.3-22.2,2.3
			c-0.7-4-2.6-9.9-4.5-13.8c6.3,0.4,13.6,0.4,15.8,0.4c2.1-0.1,2.9-0.7,2.9-2.3V188h-45.5v22.7h-14.7v-52
			c-5,5.2-10.5,10.1-16.5,13.9c-2.1-3.2-6.9-8.3-9.8-10.9c13.4-8.5,23.7-21.1,31.3-34.9h-27.4v-13.4h33.8c2.1-5,3.6-9.6,5-14.5
			l15.4,3.3c-1.2,3.7-2.5,7.4-4,11.2h61.3V127H1593.2L1593.2,127z M1631.8,148.7h-45.3v7.7h45.3V148.7z M1631.8,176v-7.7h-45.3v7.7
			H1631.8z"/>
		<path class="st0" d="M1718.9,108.6c-3.3,10.1-7.4,22.1-10.7,31.3c7.6,9.4,9.1,17.8,9.1,24.8c0,7.7-1.7,12.8-5.7,15.7
			c-1.9,1.4-4.3,2.2-7,2.6c-2.2,0.4-5.2,0.4-8.1,0.3c0-3.4-1.2-8.7-3.3-12.1c2.2,0.1,4,0.3,5.4,0.1c1.2,0,2.5-0.3,3.4-1
			c1.5-1.1,2.2-3.7,2.2-7c0-5.8-1.7-13.5-8.8-21.9c2.3-7.3,5.1-17,7.2-24.8h-12.1v94.1h-13.1V104.1h29.9l2.1-0.6L1718.9,108.6z
			 M1786.6,170.1c-5.4,4-12,8.5-17.6,12.1c5.2,6.8,12,12.4,20.4,16c-3.3,2.8-7.7,8.4-9.9,12.3c-18.7-9.8-28.8-28.3-34.6-51.7h-7.6
			v33.6l17.5-3.7c-0.1,4.1,0.1,9.9,0.7,13c-24.5,5.9-29.1,7.7-32.1,9.5c-1.1-3.2-4.3-8.7-6.3-11.2c2.6-1.5,5.8-4.8,5.8-10.3V104
			h56.8v54.9h-21.8c1.4,4.7,3,9,5,13.1c5.1-3.7,10.6-8.1,14.3-11.9L1786.6,170.1z M1737.2,116.2v9.4h27.6v-9.4H1737.2z
			 M1737.2,146.5h27.6V137h-27.6V146.5z"/>
		<path class="st0" d="M1846.5,106.3c-8.1,19.4-21.5,38-34.6,49.6c-3.2-2.6-10.1-7.7-14.1-10.2c13.5-9.9,25.6-26.6,32.4-43.8
			L1846.5,106.3z M1881.6,162c10.5,13.1,22.3,30.2,28.4,41.2l-14.9,7.7c-1.9-4-4.7-8.5-7.7-13.6c-60.8,5-69.3,5.4-75.4,7.6
			c-0.7-2.9-3.6-10.7-5.8-14.9c4.1-1.1,7.2-4,11.9-9.5c5.2-5.1,20.4-25.6,29.8-45.8l16.7,6.8c-9.1,16.5-20.9,32.5-32.5,45.5l46.9-3
			c-3.7-5.4-7.7-10.9-11.2-15.7L1881.6,162z M1879.4,100.9c7.6,14.9,22.6,32.2,35,42.7c-4,2.8-9.5,8.4-12.5,12.1
			c-12.7-12.3-27.7-31.7-37.3-49.1L1879.4,100.9z"/>
		<path class="st0" d="M2031.5,192.8c0,8.1-1.5,12.4-6.9,14.9c-5.1,2.5-13.2,2.9-24.4,2.8c-0.6-4.1-2.8-11.3-5-15.4
			c7,0.4,15.3,0.4,17.6,0.3c2.2,0,3.2-0.6,3.2-2.6v-72.9h-87.7v-13.5h102.9v86.5L2031.5,192.8L2031.5,192.8z M2003.6,140.8h-73.9
			v-12.4h73.9V140.8z M1950.8,190.1v8.5h-14.6v-49.1h60.9V190h-46.3V190.1z M1950.8,161.8v16h31.7v-16H1950.8z"/>
	</g>
</g>
<g>
	<polygon class="st1" points="190.7,298.4 190.4,298.5 122.4,259.3 122.4,180.7 190.4,141.5 258.5,180.7 258.5,251.4 380.9,180.7 
		380.9,110.1 190.4,0.1 0,110.1 0,329.9 190.4,439.9 313.5,368.9 	"/>
	<polygon class="st1" points="231.3,243.6 190.4,267.1 149.6,243.6 149.6,196.4 190.4,172.8 231.3,196.4 	"/>
</g>
</svg>
